<svg version="1.2" baseProfile="tiny-ps" xmlns="http://www.w3.org/2000/svg" viewBox="0 0 150 49" width="150" height="49">
	<title>新建项目</title>
	<style>
		tspan { white-space:pre }
		.shp0 { fill: none;stroke: #ff0000;stroke-width: 1.563 } 
		.shp1 { fill: none;stroke: #00ffff;stroke-width: 1.563 } 
		.txt2 { font-size: 10px;fill: #000000;font-weight: 400;font-family: "DejaVuSans", "DejaVu Sans" } 
		.txt3 { font-size: 10px;fill: #ff003c;font-weight: 400;font-family: "DejaVuSans", "DejaVu Sans" } 
		.shp4 { fill: #ff0000;stroke: #ff0000;stroke-width: 1.563 } 
	</style>
	<path id="形状 1" class="shp0" d="M51.49 46.77C29.21 46.77 11.19 37.81 11.19 26.73C11.19 15.64 29.21 6.68 51.49 6.68C73.78 6.68 91.79 15.64 91.79 26.73C91.79 37.81 73.78 46.77 51.49 46.77Z" />
	<path id="形状 1 copy" class="shp1" d="M105.22 46.77C82.94 46.77 64.93 37.81 64.93 26.73C64.93 15.64 82.94 6.68 105.22 6.68C127.51 6.68 145.52 15.64 145.52 26.73C145.52 37.81 127.51 46.77 105.22 46.77Z" />
	<text id="A " style="transform: matrix(2.239,0,0,2.227,17.91,33.409)" >
		<tspan x="0" y="0" class="txt2">A</tspan>
	</text>
	<text id="a " style="transform: matrix(2.239,0,0,2.227,44.776,37.864)" >
		<tspan x="0" y="0" class="txt3">a</tspan>
	</text>
	<path id="形状 2" class="shp4" d="M55.97 20.05C54.73 20.05 53.73 19.05 53.73 17.82C53.73 16.59 54.73 15.59 55.97 15.59C57.21 15.59 58.21 16.59 58.21 17.82C58.21 19.05 57.21 20.05 55.97 20.05Z" />
	<text id="B " style="transform: matrix(2.239,0,0,2.227,120.896,33.409)" >
		<tspan x="0" y="0" class="txt2">B</tspan>
	</text>
</svg>